<?xml version="1.0" encoding="UTF-8" standalone="no"?>
<svg
   xmlns:dc="http://purl.org/dc/elements/1.1/"
   xmlns:cc="http://creativecommons.org/ns#"
   xmlns:rdf="http://www.w3.org/1999/02/22-rdf-syntax-ns#"
   xmlns:svg="http://www.w3.org/2000/svg"
   xmlns="http://www.w3.org/2000/svg"
   xmlns:sodipodi="http://sodipodi.sourceforge.net/DTD/sodipodi-0.dtd"
   xmlns:inkscape="http://www.inkscape.org/namespaces/inkscape"
   sodipodi:docname="scgis-text-logo-paths_scgis-2021.svg"
   inkscape:version="1.0 (4035a4fb49, 2020-05-01)"
   id="svg8"
   version="1.1"
   viewBox="0 0 70.992043 49.484638"
   height="49.484638mm"
   width="70.992043mm"
   inkscape:export-filename="C:\Users\Andy\Documents\Workshops &amp; Conferences\SCGIS_2021\conference logo\scgis-text-logo\scgis-text-logo_400x242.png"
   inkscape:export-xdpi="143.11"
   inkscape:export-ydpi="143.11">
  <defs
     id="defs2" />
  <sodipodi:namedview
     inkscape:window-maximized="1"
     inkscape:window-y="-8"
     inkscape:window-x="-8"
     inkscape:window-height="1002"
     inkscape:window-width="1920"
     showgrid="false"
     inkscape:document-rotation="0"
     inkscape:current-layer="layer1"
     inkscape:document-units="mm"
     inkscape:cy="148.19184"
     inkscape:cx="193.03963"
     inkscape:zoom="2.8"
     inkscape:pageshadow="2"
     inkscape:pageopacity="0.0"
     borderopacity="1.0"
     bordercolor="#666666"
     pagecolor="#ffffff"
     id="base"
     fit-margin-top="0"
     fit-margin-left="0"
     fit-margin-right="0"
     fit-margin-bottom="0" />
  <metadata
     id="metadata5">
    <rdf:RDF>
      <cc:Work
         rdf:about="">
        <dc:format>image/svg+xml</dc:format>
        <dc:type
           rdf:resource="http://purl.org/dc/dcmitype/StillImage" />
        <dc:title></dc:title>
      </cc:Work>
    </rdf:RDF>
  </metadata>
  <g
     id="layer1"
     inkscape:groupmode="layer"
     inkscape:label="Layer 1"
     transform="translate(-27.52951,-40.676023)">
    <g
       aria-label="GIS"
       transform="scale(0.93971238,1.0641554)"
       id="text845"
       style="font-style:normal;font-weight:normal;font-size:25.9258px;line-height:1.25;font-family:sans-serif;letter-spacing:1.40913px;word-spacing:0px;fill:#000000;fill-opacity:1;stroke:none;stroke-width:0.648147">
      <path
         d="m 46.456508,77.046299 q -0.440738,0.207407 -1.166661,0.466665 -0.725922,0.259258 -1.659251,0.49259 -0.907403,0.207406 -1.970361,0.362961 -1.062958,0.155555 -2.151841,0.155555 -2.255545,0 -3.992574,-0.622219 -1.737028,-0.648145 -2.929615,-1.814806 -1.166661,-1.166661 -1.78888,-2.825912 -0.596294,-1.659252 -0.596294,-3.70739 0,-2.09999 0.699997,-3.759241 0.725922,-1.659251 1.996287,-2.799986 1.270364,-1.166661 3.007392,-1.762955 1.737029,-0.622219 3.811093,-0.622219 0.985181,0 1.892584,0.103703 0.933328,0.103703 1.711102,0.259258 0.8037,0.129629 1.451845,0.31111 0.648145,0.18148 1.062958,0.337035 v 3.966648 q -0.829626,-0.259258 -2.333322,-0.596294 -1.477771,-0.362961 -3.499983,-0.362961 -1.062958,0 -1.996287,0.285184 -0.907403,0.259258 -1.607399,0.855551 -0.674071,0.596294 -1.088884,1.555548 -0.388887,0.959255 -0.388887,2.307397 0,1.399993 0.388887,2.359247 0.414813,0.933329 1.088884,1.503697 0.699996,0.570367 1.581473,0.829625 0.881478,0.233333 1.840732,0.233333 0.492591,0 1.140736,-0.07778 0.648145,-0.103703 1.192586,-0.233332 v -2.09999 h -3.007393 v -3.785167 h 7.311076 v 8.685143 z"
         style="font-style:normal;font-variant:normal;font-weight:bold;font-stretch:normal;font-size:25.9258px;font-family:SupraW01-Bold;-inkscape-font-specification:'SupraW01-Bold, Bold';font-variant-ligatures:normal;font-variant-caps:normal;font-variant-numeric:normal;font-variant-east-asian:normal;fill:#000000;fill-opacity:1;stroke-width:0.648147"
         id="path22" />
      <path
         d="M 51.050461,78.187035 V 60.946377 h 4.614792 v 17.240658 z"
         style="font-style:normal;font-variant:normal;font-weight:bold;font-stretch:normal;font-size:25.9258px;font-family:SupraW01-Bold;-inkscape-font-specification:'SupraW01-Bold, Bold';font-variant-ligatures:normal;font-variant-caps:normal;font-variant-numeric:normal;font-variant-east-asian:normal;fill:#000000;fill-opacity:1;stroke-width:0.648147"
         id="path24" />
      <path
         d="m 59.886117,73.001875 q 1.399993,0.777774 2.851838,1.244438 1.477771,0.466664 2.774061,0.466664 1.29629,0 1.944435,-0.285183 0.67407,-0.31111 0.67407,-1.11481 0,-0.544442 -0.466664,-0.907403 -0.440739,-0.388887 -1.555548,-0.829625 l -1.711103,-0.674071 q -0.907403,-0.362961 -1.685177,-0.8037 -0.777774,-0.466664 -1.348142,-1.062958 -0.544441,-0.596293 -0.855551,-1.348142 -0.31111,-0.777774 -0.31111,-1.78888 0,-2.566654 1.737029,-3.88887 1.737029,-1.322216 4.770347,-1.322216 1.840732,0 3.240725,0.31111 1.425919,0.31111 2.359248,0.674071 v 3.992573 q -1.218512,-0.596293 -2.488877,-0.907403 -1.270364,-0.31111 -2.462951,-0.31111 -1.011106,0 -1.633325,0.259258 -0.596293,0.259258 -0.596293,0.933329 0,0.674071 0.466664,1.062958 0.49259,0.362961 1.529622,0.8037 l 1.581474,0.674071 q 1.088884,0.466664 1.918509,0.933328 0.829626,0.466665 1.374068,1.037033 0.570367,0.570367 0.829625,1.270364 0.285184,0.674071 0.285184,1.607399 0,2.566655 -1.78888,4.018499 -1.762955,1.451845 -5.288863,1.451845 -1.866658,0 -3.422206,-0.388887 -1.555548,-0.388887 -2.722209,-0.933329 z"
         style="font-style:normal;font-variant:normal;font-weight:bold;font-stretch:normal;font-size:25.9258px;font-family:SupraW01-Bold;-inkscape-font-specification:'SupraW01-Bold, Bold';font-variant-ligatures:normal;font-variant-caps:normal;font-variant-numeric:normal;font-variant-east-asian:normal;fill:#000000;fill-opacity:1;stroke-width:0.648147"
         id="path26" />
    </g>
    <g
       aria-label="SOCIETY FOR CONSERVATION"
       id="text12"
       style="font-style:normal;font-variant:normal;font-weight:bold;font-stretch:condensed;font-size:10.5833px;line-height:1;font-family:Arial;-inkscape-font-specification:'Arial, Bold Condensed';font-variant-ligatures:normal;font-variant-caps:normal;font-variant-numeric:normal;font-variant-east-asian:normal;letter-spacing:0.3175px;word-spacing:0.79375px;fill:#000000;fill-opacity:1;stroke:none;stroke-width:0.264583">
      <path
         d="m 27.52951,45.915997 1.224728,-0.144694 q 0.206705,1.452103 1.353918,1.452103 0.568439,0 0.893999,-0.294554 0.325561,-0.299723 0.325561,-0.738971 0,-0.258381 -0.113688,-0.439248 -0.113688,-0.180867 -0.346231,-0.294555 -0.232543,-0.118855 -1.126543,-0.39274 -0.800982,-0.242878 -1.173051,-0.527098 -0.372069,-0.284219 -0.594277,-0.744138 -0.21704,-0.465086 -0.21704,-0.997352 0,-0.620115 0.279052,-1.116207 0.284219,-0.496092 0.780311,-0.749306 0.496092,-0.253214 1.224728,-0.253214 1.095537,0 1.710484,0.594277 0.614948,0.594277 0.651121,1.70015 l -1.255733,0.06718 q -0.08268,-0.60978 -0.356566,-0.852659 -0.273885,-0.242878 -0.780312,-0.242878 -0.506427,0 -0.780312,0.211872 -0.273884,0.211873 -0.273884,0.527098 0,0.310058 0.248046,0.521931 0.248046,0.211872 1.142046,0.465086 0.945675,0.273884 1.364253,0.578774 0.423746,0.299723 0.645954,0.780312 0.222207,0.475422 0.222207,1.157548 0,0.987017 -0.609779,1.658809 -0.604613,0.671791 -1.896519,0.671791 -2.284092,0 -2.542473,-2.599317 z"
         style="font-style:normal;font-variant:normal;font-weight:bold;font-stretch:condensed;font-size:10.5833px;font-family:Arial;-inkscape-font-specification:'Arial, Bold Condensed';font-variant-ligatures:normal;font-variant-caps:normal;font-variant-numeric:normal;font-variant-east-asian:normal;fill:#007c7d;stroke-width:0.264583"
         id="path29" />
      <path
         d="m 33.701932,44.639593 q 0,-1.353918 0.397907,-2.227247 0.403075,-0.878497 1.049028,-1.30741 0.645953,-0.428913 1.565791,-0.428913 1.333248,0 2.170403,1.018023 0.842323,1.018022 0.842323,2.899038 0,1.901687 -0.888831,2.971386 -0.780312,0.945675 -2.118727,0.945675 -1.348751,0 -2.129063,-0.93534 -0.888831,-1.069699 -0.888831,-2.935212 z m 1.291906,-0.05168 q 0,1.307409 0.496092,1.963698 0.496093,0.651121 1.229896,0.651121 0.73897,0 1.224727,-0.645954 0.485757,-0.65112 0.485757,-1.994703 0,-1.317745 -0.475422,-1.948196 -0.470254,-0.63045 -1.235062,-0.63045 -0.764809,0 -1.245398,0.635618 -0.48059,0.635618 -0.48059,1.968866 z"
         style="font-style:normal;font-variant:normal;font-weight:bold;font-stretch:condensed;font-size:10.5833px;font-family:Arial;-inkscape-font-specification:'Arial, Bold Condensed';font-variant-ligatures:normal;font-variant-caps:normal;font-variant-numeric:normal;font-variant-east-asian:normal;fill:#007c7d;stroke-width:0.264583"
         id="path31" />
      <path
         d="m 45.005806,45.595604 1.214393,0.470254 q -0.28422,1.271236 -0.945676,1.860346 -0.661456,0.583941 -1.627803,0.583941 -1.214392,0 -1.968865,-0.93534 -0.868162,-1.080034 -0.868162,-2.914542 0,-1.93786 0.873329,-3.033396 0.759641,-0.950844 2.041213,-0.950844 1.04386,0 1.746658,0.713133 0.501259,0.506427 0.733803,1.503779 l -1.240231,0.361734 q -0.118855,-0.614948 -0.475421,-0.940508 -0.351399,-0.330728 -0.831988,-0.330728 -0.687295,0 -1.121375,0.599444 -0.434081,0.599445 -0.434081,1.979202 0,1.431432 0.423745,2.036045 0.423746,0.604612 1.100705,0.604612 0.496092,0 0.857826,-0.382405 0.361734,-0.387572 0.52193,-1.224727 z"
         style="font-style:normal;font-variant:normal;font-weight:bold;font-stretch:condensed;font-size:10.5833px;font-family:Arial;-inkscape-font-specification:'Arial, Bold Condensed';font-variant-ligatures:normal;font-variant-caps:normal;font-variant-numeric:normal;font-variant-east-asian:normal;fill:#007c7d;stroke-width:0.264583"
         id="path33" />
      <path
         d="m 47.571223,48.380955 v -7.575741 h 1.250566 v 7.575741 z"
         style="font-style:normal;font-variant:normal;font-weight:bold;font-stretch:condensed;font-size:10.5833px;font-family:Arial;-inkscape-font-specification:'Arial, Bold Condensed';font-variant-ligatures:normal;font-variant-caps:normal;font-variant-numeric:normal;font-variant-east-asian:normal;fill:#007c7d;stroke-width:0.264583"
         id="path35" />
      <path
         d="m 50.348514,48.380955 v -7.575741 h 4.609524 v 1.281571 H 51.59908 v 1.679479 h 3.121247 v 1.276404 H 51.59908 v 2.061883 h 3.472645 v 1.276404 z"
         style="font-style:normal;font-variant:normal;font-weight:bold;font-stretch:condensed;font-size:10.5833px;font-family:Arial;-inkscape-font-specification:'Arial, Bold Condensed';font-variant-ligatures:normal;font-variant-caps:normal;font-variant-numeric:normal;font-variant-east-asian:normal;fill:#007c7d;stroke-width:0.264583"
         id="path37" />
      <path
         d="m 57.849015,48.380955 v -6.29417 h -1.844842 v -1.281571 h 4.935083 v 1.281571 h -1.839675 v 6.29417 z"
         style="font-style:normal;font-variant:normal;font-weight:bold;font-stretch:condensed;font-size:10.5833px;font-family:Arial;-inkscape-font-specification:'Arial, Bold Condensed';font-variant-ligatures:normal;font-variant-caps:normal;font-variant-numeric:normal;font-variant-east-asian:normal;fill:#007c7d;stroke-width:0.264583"
         id="path39" />
      <path
         d="m 63.711379,48.380955 v -3.188426 l -2.273756,-4.387315 h 1.467606 l 1.462438,2.997223 1.4366,-2.997223 h 1.441768 l -2.284091,4.39765 v 3.178091 z"
         style="font-style:normal;font-variant:normal;font-weight:bold;font-stretch:condensed;font-size:10.5833px;font-family:Arial;-inkscape-font-specification:'Arial, Bold Condensed';font-variant-ligatures:normal;font-variant-caps:normal;font-variant-numeric:normal;font-variant-east-asian:normal;fill:#007c7d;stroke-width:0.264583"
         id="path41" />
      <path
         d="m 71.558322,48.380955 v -7.575741 h 4.258124 v 1.281571 h -3.007559 v 1.793167 h 2.599316 v 1.281571 h -2.599316 v 3.219432 z"
         style="font-style:normal;font-variant:normal;font-weight:bold;font-stretch:condensed;font-size:10.5833px;font-family:Arial;-inkscape-font-specification:'Arial, Bold Condensed';font-variant-ligatures:normal;font-variant-caps:normal;font-variant-numeric:normal;font-variant-east-asian:normal;fill:#007c7d;stroke-width:0.264583"
         id="path43" />
      <path
         d="m 76.929762,44.639593 q 0,-1.353918 0.397907,-2.227247 0.403075,-0.878497 1.049028,-1.30741 0.645954,-0.428913 1.565791,-0.428913 1.333248,0 2.170404,1.018023 0.842323,1.018022 0.842323,2.899038 0,1.901687 -0.888832,2.971386 -0.780312,0.945675 -2.118727,0.945675 -1.348751,0 -2.129062,-0.93534 -0.888832,-1.069699 -0.888832,-2.935212 z m 1.291907,-0.05168 q 0,1.307409 0.496092,1.963698 0.496092,0.651121 1.229895,0.651121 0.738971,0 1.224728,-0.645954 0.485756,-0.65112 0.485756,-1.994703 0,-1.317745 -0.475421,-1.948196 -0.470254,-0.63045 -1.235063,-0.63045 -0.764809,0 -1.245398,0.635618 -0.480589,0.635618 -0.480589,1.968866 z"
         style="font-style:normal;font-variant:normal;font-weight:bold;font-stretch:condensed;font-size:10.5833px;font-family:Arial;-inkscape-font-specification:'Arial, Bold Condensed';font-variant-ligatures:normal;font-variant-caps:normal;font-variant-numeric:normal;font-variant-east-asian:normal;fill:#007c7d;stroke-width:0.264583"
         id="path45" />
      <path
         d="m 84.259731,48.380955 v -7.575741 h 2.640657 q 1.012855,0 1.446936,0.206705 0.434081,0.201537 0.713132,0.707965 0.279052,0.50126 0.279052,1.204057 0,0.888832 -0.428913,1.431432 -0.423745,0.542601 -1.209224,0.682127 0.403074,0.289387 0.666623,0.635618 0.263549,0.341064 0.718301,1.229895 l 0.754473,1.477942 h -1.493444 l -0.909502,-1.648473 q -0.490925,-0.894 -0.666624,-1.116208 -0.1757,-0.227375 -0.372069,-0.310057 -0.19637,-0.08785 -0.630451,-0.08785 h -0.258381 v 3.162588 z m 1.250566,-4.371813 h 0.930173 q 0.852658,0 1.085201,-0.07235 0.232544,-0.07751 0.377237,-0.30489 0.144694,-0.227376 0.144694,-0.604613 0,-0.361733 -0.144694,-0.578774 -0.144693,-0.222208 -0.39274,-0.30489 -0.175699,-0.05684 -1.018022,-0.05684 h -0.981849 z"
         style="font-style:normal;font-variant:normal;font-weight:bold;font-stretch:condensed;font-size:10.5833px;font-family:Arial;-inkscape-font-specification:'Arial, Bold Condensed';font-variant-ligatures:normal;font-variant-caps:normal;font-variant-numeric:normal;font-variant-east-asian:normal;fill:#007c7d;stroke-width:0.264583"
         id="path47" />
      <path
         d="m 31.823808,56.178904 1.214392,0.470254 q -0.284219,1.271236 -0.945675,1.860345 -0.661457,0.583942 -1.627803,0.583942 -1.214392,0 -1.968866,-0.93534 -0.868161,-1.080034 -0.868161,-2.914542 0,-1.93786 0.873329,-3.033397 0.759641,-0.950843 2.041213,-0.950843 1.04386,0 1.746657,0.713132 0.50126,0.506428 0.733803,1.50378 l -1.24023,0.361734 q -0.118855,-0.614948 -0.475422,-0.940508 -0.351398,-0.330729 -0.831988,-0.330729 -0.687294,0 -1.121375,0.599445 -0.43408,0.599445 -0.43408,1.979201 0,1.431433 0.423745,2.036045 0.423746,0.604612 1.100705,0.604612 0.496092,0 0.857826,-0.382404 0.361734,-0.387572 0.52193,-1.224727 z"
         style="font-style:normal;font-variant:normal;font-weight:bold;font-stretch:condensed;font-size:10.5833px;font-family:Arial;-inkscape-font-specification:'Arial, Bold Condensed';font-variant-ligatures:normal;font-variant-caps:normal;font-variant-numeric:normal;font-variant-east-asian:normal;fill:#007c7d;stroke-width:0.264583"
         id="path49" />
      <path
         d="m 34.177353,55.222893 q 0,-1.353919 0.397907,-2.227248 0.403075,-0.878496 1.049028,-1.307409 0.645954,-0.428913 1.565791,-0.428913 1.333248,0 2.170404,1.018022 0.842323,1.018023 0.842323,2.899039 0,1.901687 -0.888832,2.971385 -0.780312,0.945676 -2.118727,0.945676 -1.348751,0 -2.129062,-0.93534 -0.888832,-1.069699 -0.888832,-2.935212 z m 1.291907,-0.05168 q 0,1.30741 0.496092,1.963699 0.496092,0.65112 1.229895,0.65112 0.738971,0 1.224728,-0.645953 0.485756,-0.651121 0.485756,-1.994704 0,-1.317745 -0.475421,-1.948195 -0.470254,-0.630451 -1.235063,-0.630451 -0.764809,0 -1.245398,0.635619 -0.480589,0.635618 -0.480589,1.968865 z"
         style="font-style:normal;font-variant:normal;font-weight:bold;font-stretch:condensed;font-size:10.5833px;font-family:Arial;-inkscape-font-specification:'Arial, Bold Condensed';font-variant-ligatures:normal;font-variant-caps:normal;font-variant-numeric:normal;font-variant-east-asian:normal;fill:#007c7d;stroke-width:0.264583"
         id="path51" />
      <path
         d="m 41.517657,58.964254 v -7.57574 h 1.21956 l 2.542473,5.059106 v -5.059106 h 1.167883 v 7.57574 h -1.260901 l -2.501131,-4.940251 v 4.940251 z"
         style="font-style:normal;font-variant:normal;font-weight:bold;font-stretch:condensed;font-size:10.5833px;font-family:Arial;-inkscape-font-specification:'Arial, Bold Condensed';font-variant-ligatures:normal;font-variant-caps:normal;font-variant-numeric:normal;font-variant-east-asian:normal;fill:#007c7d;stroke-width:0.264583"
         id="path53" />
      <path
         d="m 47.767593,56.499296 1.224728,-0.144693 q 0.206705,1.452103 1.353918,1.452103 0.568439,0 0.893999,-0.294555 0.325561,-0.299722 0.325561,-0.73897 0,-0.258382 -0.113688,-0.439249 -0.113688,-0.180867 -0.346231,-0.294554 -0.232543,-0.118856 -1.126543,-0.39274 -0.800982,-0.242878 -1.173051,-0.527098 -0.372069,-0.284219 -0.594277,-0.744138 -0.21704,-0.465087 -0.21704,-0.997352 0,-0.620115 0.279051,-1.116208 0.28422,-0.496092 0.780312,-0.749305 0.496092,-0.253214 1.224728,-0.253214 1.095537,0 1.710484,0.594277 0.614948,0.594277 0.651121,1.700149 l -1.255733,0.06718 q -0.08268,-0.60978 -0.356566,-0.852658 -0.273885,-0.242879 -0.780312,-0.242879 -0.506428,0 -0.780312,0.211873 -0.273884,0.211873 -0.273884,0.527098 0,0.310058 0.248046,0.52193 0.248046,0.211873 1.142046,0.465087 0.945675,0.273884 1.364253,0.578774 0.423745,0.299722 0.645953,0.780312 0.222208,0.475421 0.222208,1.157548 0,0.987017 -0.60978,1.658808 -0.604612,0.671792 -1.896519,0.671792 -2.284091,0 -2.542472,-2.599318 z"
         style="font-style:normal;font-variant:normal;font-weight:bold;font-stretch:condensed;font-size:10.5833px;font-family:Arial;-inkscape-font-specification:'Arial, Bold Condensed';font-variant-ligatures:normal;font-variant-caps:normal;font-variant-numeric:normal;font-variant-east-asian:normal;fill:#007c7d;stroke-width:0.264583"
         id="path55" />
      <path
         d="m 54.193228,58.964254 v -7.57574 h 4.609523 v 1.281571 h -3.358958 v 1.679479 h 3.121247 v 1.276403 h -3.121247 v 2.061884 h 3.472646 v 1.276403 z"
         style="font-style:normal;font-variant:normal;font-weight:bold;font-stretch:condensed;font-size:10.5833px;font-family:Arial;-inkscape-font-specification:'Arial, Bold Condensed';font-variant-ligatures:normal;font-variant-caps:normal;font-variant-numeric:normal;font-variant-east-asian:normal;fill:#007c7d;stroke-width:0.264583"
         id="path57" />
      <path
         d="m 60.298469,58.964254 v -7.57574 h 2.640658 q 1.012855,0 1.446935,0.206705 0.434081,0.201537 0.713133,0.707964 0.279052,0.50126 0.279052,1.204058 0,0.888831 -0.428913,1.431432 -0.423746,0.542601 -1.209225,0.682127 0.403075,0.289387 0.666624,0.635618 0.263549,0.341063 0.7183,1.229895 l 0.754473,1.477941 H 64.386062 L 63.47656,57.315781 q -0.490925,-0.893999 -0.666624,-1.116207 -0.175699,-0.227376 -0.372069,-0.310058 -0.19637,-0.08785 -0.630451,-0.08785 h -0.258381 v 3.162587 z m 1.250566,-4.371812 h 0.930173 q 0.852658,0 1.085202,-0.07235 0.232543,-0.07751 0.377236,-0.30489 0.144694,-0.227375 0.144694,-0.604612 0,-0.361734 -0.144694,-0.578774 -0.144693,-0.222208 -0.392739,-0.30489 -0.1757,-0.05684 -1.018023,-0.05684 h -0.981849 z"
         style="font-style:normal;font-variant:normal;font-weight:bold;font-stretch:condensed;font-size:10.5833px;font-family:Arial;-inkscape-font-specification:'Arial, Bold Condensed';font-variant-ligatures:normal;font-variant-caps:normal;font-variant-numeric:normal;font-variant-east-asian:normal;fill:#007c7d;stroke-width:0.264583"
         id="path59" />
      <path
         d="m 68.302813,58.964254 -2.216912,-7.57574 h 1.359086 l 1.570959,5.606875 1.519282,-5.606875 h 1.333248 l -2.22208,7.57574 z"
         style="font-style:normal;font-variant:normal;font-weight:bold;font-stretch:condensed;font-size:10.5833px;font-family:Arial;-inkscape-font-specification:'Arial, Bold Condensed';font-variant-ligatures:normal;font-variant-caps:normal;font-variant-numeric:normal;font-variant-east-asian:normal;fill:#007c7d;stroke-width:0.264583"
         id="path61" />
      <path
         d="m 77.787683,58.964254 h -1.364254 l -0.542601,-1.720819 h -2.48046 l -0.511595,1.720819 h -1.333248 l 2.418449,-7.57574 h 1.32808 z m -2.309929,-2.997223 -0.852659,-2.811189 -0.842323,2.811189 z"
         style="font-style:normal;font-variant:normal;font-weight:bold;font-stretch:condensed;font-size:10.5833px;font-family:Arial;-inkscape-font-specification:'Arial, Bold Condensed';font-variant-ligatures:normal;font-variant-caps:normal;font-variant-numeric:normal;font-variant-east-asian:normal;fill:#007c7d;stroke-width:0.264583"
         id="path63" />
      <path
         d="M 79.526283,58.964254 V 52.670085 H 77.68144 v -1.281571 h 4.935083 v 1.281571 h -1.839675 v 6.294169 z"
         style="font-style:normal;font-variant:normal;font-weight:bold;font-stretch:condensed;font-size:10.5833px;font-family:Arial;-inkscape-font-specification:'Arial, Bold Condensed';font-variant-ligatures:normal;font-variant-caps:normal;font-variant-numeric:normal;font-variant-east-asian:normal;fill:#007c7d;stroke-width:0.264583"
         id="path65" />
      <path
         d="m 83.727252,58.964254 v -7.57574 h 1.250565 v 7.57574 z"
         style="font-style:normal;font-variant:normal;font-weight:bold;font-stretch:condensed;font-size:10.5833px;font-family:Arial;-inkscape-font-specification:'Arial, Bold Condensed';font-variant-ligatures:normal;font-variant-caps:normal;font-variant-numeric:normal;font-variant-east-asian:normal;fill:#007c7d;stroke-width:0.264583"
         id="path67" />
      <path
         d="m 86.251329,55.222893 q 0,-1.353919 0.397908,-2.227248 0.403075,-0.878496 1.049028,-1.307409 0.645953,-0.428913 1.565791,-0.428913 1.333248,0 2.170403,1.018022 0.842323,1.018023 0.842323,2.899039 0,1.901687 -0.888832,2.971385 -0.780311,0.945676 -2.118726,0.945676 -1.348751,0 -2.129063,-0.93534 -0.888832,-1.069699 -0.888832,-2.935212 z m 1.291907,-0.05168 q 0,1.30741 0.496092,1.963699 0.496093,0.65112 1.229896,0.65112 0.73897,0 1.224727,-0.645953 0.485757,-0.651121 0.485757,-1.994704 0,-1.317745 -0.475422,-1.948195 -0.470254,-0.630451 -1.235062,-0.630451 -0.764809,0 -1.245399,0.635619 -0.480589,0.635618 -0.480589,1.968865 z"
         style="font-style:normal;font-variant:normal;font-weight:bold;font-stretch:condensed;font-size:10.5833px;font-family:Arial;-inkscape-font-specification:'Arial, Bold Condensed';font-variant-ligatures:normal;font-variant-caps:normal;font-variant-numeric:normal;font-variant-east-asian:normal;fill:#007c7d;stroke-width:0.264583"
         id="path69" />
      <path
         d="m 93.591638,58.964254 v -7.57574 h 1.21956 l 2.542472,5.059106 v -5.059106 h 1.167884 v 7.57574 h -1.260901 l -2.501132,-4.940251 v 4.940251 z"
         style="font-style:normal;font-variant:normal;font-weight:bold;font-stretch:condensed;font-size:10.5833px;font-family:Arial;-inkscape-font-specification:'Arial, Bold Condensed';font-variant-ligatures:normal;font-variant-caps:normal;font-variant-numeric:normal;font-variant-east-asian:normal;fill:#007c7d;stroke-width:0.264583"
         id="path71" />
    </g>
    <text
       id="text36"
       y="90.100037"
       x="27.553347"
       style="font-style:normal;font-variant:normal;font-weight:bold;font-stretch:condensed;font-size:4.96651px;line-height:1.25;font-family:Arial;-inkscape-font-specification:'Arial, Bold Condensed';font-variant-ligatures:normal;font-variant-caps:normal;font-variant-numeric:normal;font-variant-east-asian:normal;letter-spacing:0px;word-spacing:0px;fill:#666666;fill-opacity:1;stroke:none;stroke-width:0.124163"
       xml:space="preserve"><tspan
         style="font-style:normal;font-variant:normal;font-weight:bold;font-stretch:condensed;font-size:4.96651px;font-family:Arial;-inkscape-font-specification:'Arial, Bold Condensed';font-variant-ligatures:normal;font-variant-caps:normal;font-variant-numeric:normal;font-variant-east-asian:normal;fill:#666666;stroke-width:0.124163"
         y="90.100037"
         x="27.553347"
         id="tspan34"
         sodipodi:role="line">2021 Annual Conference</tspan></text>
  </g>
</svg>
